<?xml version="1.0" standalone="no"?>
<!DOCTYPE svg PUBLIC "-//W3C//DTD SVG 20010904//EN"
 "http://www.w3.org/TR/2001/REC-SVG-20010904/DTD/svg10.dtd">
<svg version="1.0" xmlns="http://www.w3.org/2000/svg"
 width="570.000000pt" height="630.000000pt" viewBox="0 0 570.000000 630.000000"
 preserveAspectRatio="xMidYMid meet">
<metadata>
Created by potrace 1.16, written by Peter Selinger 2001-2019
</metadata>
<g transform="translate(0.000000,630.000000) scale(0.100000,-0.100000)"
fill="#000000" stroke="none">
<path d="M3600 5925 l0 -75 -75 0 -75 0 0 -375 0 -375 75 0 75 0 0 -75 0 -75
225 0 225 0 0 75 0 75 75 0 75 0 0 375 0 375 -75 0 -75 0 0 75 0 75 -225 0
-225 0 0 -75z m300 -150 l0 -75 -75 0 -75 0 0 -75 0 -75 -75 0 -75 0 0 75 0
75 75 0 75 0 0 75 0 75 75 0 75 0 0 -75z"/>
<path d="M2100 4725 l0 -75 -150 0 -150 0 0 -75 0 -75 -75 0 -75 0 0 -75 0
-75 -75 0 -75 0 0 -75 0 -75 -75 0 -75 0 0 -375 0 -375 75 0 75 0 0 300 0 300
75 0 75 0 0 75 0 75 75 0 75 0 0 75 0 75 150 0 150 0 0 -75 0 -75 -75 0 -75 0
0 -150 0 -150 -75 0 -75 0 0 -375 0 -375 75 0 75 0 0 -150 0 -150 75 0 75 0 0
-225 0 -225 -75 0 -75 0 0 -75 0 -75 -225 0 -225 0 0 75 0 75 -150 0 -150 0 0
75 0 75 -150 0 -150 0 0 75 0 75 -150 0 -150 0 0 -375 0 -375 150 0 150 0 0
-75 0 -75 150 0 150 0 0 -75 0 -75 150 0 150 0 0 -75 0 -75 300 0 300 0 0 75
0 75 150 0 150 0 0 75 0 75 75 0 75 0 0 75 0 75 75 0 75 0 0 75 0 75 150 0
150 0 0 -75 0 -75 75 0 75 0 0 -225 0 -225 -75 0 -75 0 0 -150 0 -150 -75 0
-75 0 0 -150 0 -150 -75 0 -75 0 0 -225 0 -225 75 0 75 0 0 75 0 75 150 0 150
0 0 150 0 150 -75 0 -75 0 0 150 0 150 75 0 75 0 0 150 0 150 75 0 75 0 0 225
0 225 -75 0 -75 0 0 75 0 75 -75 0 -75 0 0 75 0 75 -75 0 -75 0 0 75 0 75 -75
0 -75 0 0 75 0 75 -75 0 -75 0 0 75 0 75 -75 0 -75 0 0 75 0 75 -150 0 -150 0
0 225 0 225 -75 0 -75 0 0 225 0 225 75 0 75 0 0 150 0 150 75 0 75 0 0 75 0
75 75 0 75 0 0 75 0 75 75 0 75 0 0 150 0 150 -150 0 -150 0 0 75 0 75 -75 0
-75 0 0 -75z m150 -300 l0 -75 -75 0 -75 0 0 75 0 75 75 0 75 0 0 -75z m-1350
-1950 l0 -75 150 0 150 0 0 -75 0 -75 150 0 150 0 0 -75 0 -75 225 0 225 0 0
75 0 75 75 0 75 0 0 75 0 75 75 0 75 0 0 -75 0 -75 75 0 75 0 0 -150 0 -150
-225 0 -225 0 0 -75 0 -75 -150 0 -150 0 0 75 0 75 -225 0 -225 0 0 75 0 75
-150 0 -150 0 0 150 0 150 -75 0 -75 0 0 75 0 75 75 0 75 0 0 -75z m2100
-1650 l0 -75 -75 0 -75 0 0 75 0 75 75 0 75 0 0 -75z"/>
<path d="M3450 4425 l0 -75 -75 0 -75 0 0 -75 0 -75 -75 0 -75 0 0 -150 0
-150 -75 0 -75 0 0 -150 0 -150 -75 0 -75 0 0 -150 0 -150 75 0 75 0 0 -225 0
-225 75 0 75 0 0 -75 0 -75 75 0 75 0 0 -75 0 -75 75 0 75 0 0 -75 0 -75 75 0
75 0 0 -150 0 -150 75 0 75 0 0 -300 0 -300 -75 0 -75 0 0 -150 0 -150 -75 0
-75 0 0 -150 0 -150 -75 0 -75 0 0 -150 0 -150 75 0 75 0 0 150 0 150 75 0 75
0 0 150 0 150 75 0 75 0 0 150 0 150 75 0 75 0 0 300 0 300 -75 0 -75 0 0 150
0 150 -75 0 -75 0 0 75 0 75 -75 0 -75 0 0 75 0 75 -75 0 -75 0 0 75 0 75 -75
0 -75 0 0 225 0 225 -75 0 -75 0 0 150 0 150 75 0 75 0 0 150 0 150 75 0 75 0
0 150 0 150 150 0 150 0 0 -75 0 -75 75 0 75 0 0 -75 0 -75 75 0 75 0 0 -75 0
-75 75 0 75 0 0 75 0 75 -75 0 -75 0 0 75 0 75 -75 0 -75 0 0 150 0 150 -75 0
-75 0 0 75 0 75 -75 0 -75 0 0 -75z"/>
<path d="M2250 675 l0 -75 75 0 75 0 0 75 0 75 -75 0 -75 0 0 -75z"/>
<path d="M4950 525 l0 -75 75 0 75 0 0 75 0 75 -75 0 -75 0 0 -75z"/>
<path d="M1950 225 l0 -75 75 0 75 0 0 75 0 75 -75 0 -75 0 0 -75z"/>
<path d="M2400 75 l0 -75 75 0 75 0 0 75 0 75 -75 0 -75 0 0 -75z"/>
<path d="M2850 75 l0 -75 75 0 75 0 0 75 0 75 -75 0 -75 0 0 -75z"/>
<path d="M3450 75 l0 -75 75 0 75 0 0 75 0 75 -75 0 -75 0 0 -75z"/>
<path d="M4350 75 l0 -75 75 0 75 0 0 75 0 75 -75 0 -75 0 0 -75z"/>
</g>
</svg>
