<svg xmlns="http://www.w3.org/2000/svg" class="injected-svg" data-src="https://preview.pixlr.com/images/svg/100/1/6e26a0f14e309e179cc6233415d3f68f6c8b5177ee759a927cd1fcb2e1e1e6bb.svg" xmlns:xlink="http://www.w3.org/1999/xlink" id="svg-edited-version" viewBox="0 0 786.667 786.667">
    <path d="M517.241 235.332h-12.213v-12.213h-24.413v-12.214H419.56v12.214h48.84v12.213h24.414v12.201h36.64v-12.201H517.24m-195.372-85.479v48.84h12.213V137.64h-12.213v12.214" fill="#fff" originalFill="#fff"/>
    <path d="M566.081 369.652v-12.213h-12.2v36.626h12.2v-12.213h12.214v-12.2H566.08m-36.625 122.107H517.24v12.213h12.214v12.201h12.213v-36.628h-12.213v12.214m-12.213-85.48h-12.213v24.426h12.213v12.215h12.214v-12.215h12.213V406.28h-24.427m-48.84 73.265v24.427h24.414v-24.427H468.4m-48.839 61.054v24.426h24.414V540.6H419.56m-36.639-73.268h12.214v-12.213H382.92v12.213m-61.052 24.427v12.213h-12.213v24.413h36.64V491.76h-24.427" fill="rgba(153, 245, 78, 1)" originalFill="#bae498"/>
    <path d="M541.668 503.972v12.201h12.213V491.76h-12.213v12.213m0-134.321v12.2h12.213v-12.2h-12.213m0 61.053h-12.213v12.215h12.213v-12.215m-36.64 12.215h12.213v-12.215h-12.213v12.215m-48.84 48.839v12.213h12.213v-24.427h-12.213v12.214m-12.213 61.054v12.212h12.213V540.6h-12.213v12.214m0-12.215v-12.214H419.56V540.6h24.414m-24.413 24.425v12.214h24.414v-12.214H419.56" fill="rgba(77, 136, 19, 1)" originalFill="#78cb49"/>
    <path d="M419.561 540.599h-12.213v24.426h12.213V540.6m-12.213-73.268v-12.213h-12.213v12.213H382.92v12.213h24.427v-12.213m-48.839 24.427h-12.213v36.626h-36.64V540.6h48.853v-12.214h12.2v-24.413h-12.2V491.76m-24.427-12.215h-24.426v12.214H297.44v24.414h12.214v-12.201h12.213v-12.213h24.427v-12.214H334.08" fill="rgba(77, 136, 19, 1)" originalFill="#78cb49"/>
    <path d="M468.401 357.439v-24.427h24.414v12.215h-12.2v12.212zm-12.213 24.413h-36.627v-12.2h36.627zm-122.107 24.427h-12.213v12.214h-24.427V406.28h12.214v-12.214h24.426v-12.213h12.214v12.213H334.08zm232-85.479v-24.415h-36.626V308.6H517.24v-12.214h-36.626V308.6h-24.427v12.2h-12.213v24.427H431.76v-12.215h-61.053v12.215h-48.839v12.212h-12.213v12.213H297.44v12.2h-12.2v12.213h-48.853v12.214h-12.2v12.214h12.2v24.427h24.427v12.199h12.213v12.213h12.213v-12.213h36.627V442.92h12.213v-12.215h12.214v-12.212h36.626V406.28h48.84v12.214h24.427v-24.428H468.4v-24.414h61.054v-24.425h12.213v-12.215h36.628V320.8H566.08" fill="rgba(115, 199, 21, 1)" originalFill="#065321"/>
    <path d="M541.668 516.173h-12.213v-12.201H517.24v-12.213h12.214v-12.214h12.213v12.214h12.213v24.414zM431.761 577.24h-12.2v-12.214h-12.213V540.6h12.213v-12.214h24.414V540.6h12.213v24.425h-12.213v12.214zm-24.413-109.907v12.213h-24.427V455.12h24.427zm97.68-61.053h36.64v36.641h-36.64v-24.427zm-12.213 85.48v12.213h-36.627v-24.427h36.627zm-183.16 36.626v-12.212H297.44V491.76h12.214v-12.214h36.64v12.214h12.213v12.213h12.2v24.413h-12.2V540.6h-48.853zM553.88 369.652v-12.213h12.2v12.213h12.214v12.2H566.08v12.213h-12.2v-12.213h-12.213v-12.2zm36.627 0v-24.425h-12.213v-12.215h-36.627v12.215h-12.213v24.425H468.4v24.413h-12.213v24.428H431.76V406.28h-48.839v12.214h-36.626v12.212H334.08v12.215h-12.213v12.199h-36.626v12.213h-12.213V455.12h-12.213v-12.2h-24.427v-24.427h-12.2v12.212h-12.213v24.414h12.213v36.64h12.2v12.213h12.213v12.201h12.214v12.212h12.213v24.428h12.213v12.212h24.414v12.214h12.213v12.2h24.427v12.213h24.413v12.215h85.48v-12.215h24.427v-12.213h12.2v-12.2h24.426v-12.214h12.214v-12.212h24.426V540.6h12.2v-24.427h12.214V491.76h12.213v-48.84h12.213v-73.268h-12.213" fill="rgba(109, 253, 17, 1)" originalFill="#41a531"/>
    <path d="M480.615 345.227h12.2v-12.215H468.4v24.427h12.214v-12.212m-36.639 36.625h12.213v-12.2h-36.627v12.2h24.414m-97.68 0H334.08v12.213h12.214v-12.213m-24.426 36.641V406.28h12.213v-12.214h-24.426v12.214H297.44v12.214h24.427" fill="rgba(109, 253, 17, 1)" originalFill="#41a531"/>
    <path d="M639.348 369.652v-24.425h-12.213V320.8h-12.2v36.639h12.2v36.626h12.213v73.267h12.213v-97.68h-12.213m-12.213 109.893h-12.2v12.214H602.72v36.626h-12.213v24.428h-12.213v12.212H566.08v12.214h-12.2v12.2h-12.213v12.213H517.24v12.215h-12.213v12.212h-24.412v12.213H370.708v-12.213h-36.627v-12.212h-24.426v-12.215H297.44v-12.213h-12.2v-12.2h-12.213v-12.214h-12.213v-12.212H248.6V540.6h-12.213v-12.214h-12.2V491.76h-12.213v-24.427H199.76v-36.628h-12.213v-48.853h-12.213v97.693h12.213v24.427h12.213v24.413h12.214v24.428h12.213v12.212h12.2v12.214H248.6v12.2h12.214v12.213h12.213v12.215h12.213v12.212h36.627v12.213h12.213v12.201h24.427v12.212h109.894v-12.212h24.414v-12.201h24.426v-12.213h12.214v-12.212h24.426v-12.215h12.2v-12.213h12.214v-12.2h12.213v-12.214h12.213V540.6h12.214v-36.627h12.2V491.76h12.213v-24.427h-12.213v12.213m-36.627-170.947h12.213V320.8h12.214v-24.415H602.72v-12.212h-12.213V308.6" fill="#bdbcbc" originalFill="#bdbcbc"/>
    <path d="M590.508 284.173V271.96h-12.213v12.214h12.213m-12.213-12.215v-12.214H566.08v12.214h12.214m-12.213-12.214v-12.212h-12.2v12.212h12.2m-24.413 12.214h-12.213v-12.214h-24.427v-12.212h-24.413v-12.201H419.56v24.413h12.2V308.6h12.214v12.2h12.213v-12.201h24.427v-12.214h36.626V308.6h12.214v-12.214h24.426v-12.212h-12.213V271.96m-232.012 61.052H297.44V320.8h-12.2v12.212H248.6v12.215h-12.213v12.212h-12.2v24.413h-12.213v36.641h12.213V406.28h12.2v-12.214h48.853v-12.213h12.2v-24.414h12.214v-12.212h12.213V320.8h-12.213v12.212" fill="#bdbcbc" originalFill="#bdbcbc"/>
    <path d="M273.028 284.173h24.413V271.96h24.427v-24.427h24.427v-12.201h36.626v-12.213h36.64v-12.214h61.054v12.214h24.413v12.213h24.427v12.201h24.426v-12.201h-12.213v-12.213h-12.213v-12.214h-24.427v-12.212h-24.413V186.48H431.76v-12.201h-48.839v12.201h-24.413v24.425h-12.213v12.214H334.08v12.213h-36.64v12.201h-12.2v12.212h-24.426v12.214h-48.839v-12.214h12.213v-12.212h24.413v-12.201h12.214v-12.213h12.213v-12.214h12.213v-12.212h12.2V186.48h12.214v-12.201h12.213v-48.852h-24.427v36.638h-12.2v24.415h-24.426v24.425h-24.427v12.214h-12.2v12.213h-48.853v-12.213H163.12v36.626h24.427v12.214h12.213v12.214h12.214v12.212h48.841v-12.212h12.213m-73.267 85.479v-12.213h12.214v-12.212h12.213V320.8h48.84v-12.201h12.213v-12.214h-24.426V308.6H199.76v24.413h-12.213v48.84h12.213v-12.2" fill="#bdbcbc" originalFill="#bdbcbc"/>
    <path d="M248.601 101.012v12.215h12.214v-12.215H248.6m-12.212 24.415h-12.2v48.852h-24.427v12.201h-36.64v24.425h36.64v-12.212h36.627V186.48h12.213v-12.201h12.214v-48.852h-24.427" fill="#9a4d2b" originalFill="#9a4d2b"/>
    <path d="M273.028 137.639v-24.412h-24.427v-12.215h-24.413v12.215h-12.213v12.2H199.76v12.212h-24.426v12.214H163.12v24.427h36.64v-12.214h12.214v-12.212h12.213v-24.427h36.628v48.852H248.6v12.201h-12.213v12.213h24.427V186.48h12.213v-24.415h12.213V137.64h-12.213m-61.052 61.053H199.76v12.212h-12.213v12.214h24.427v-12.214h24.414v-12.212h-24.413" fill="#813014" originalFill="#813014"/>
    <path d="M651.561 357.439V320.8h-12.213v-24.415h-12.213v-12.212h-12.2V271.96H602.72v-12.214h-12.213v-12.212h-12.213v-12.201H566.08V223.12h-12.2v-12.214h-12.213v-12.212H517.24V186.48h-24.426v-12.201h-48.84v-12.214H382.92v12.214h48.84v12.201h48.854v12.213h24.414v12.212h24.427v12.214h12.213v12.213h12.213v12.201h12.2v12.212h12.214v12.214h12.213v12.214h12.213v12.212h12.214V320.8h12.2v24.427h12.213v24.425h12.213v97.68h-12.213v24.427h-12.213v12.213h-12.2v36.627H602.72v24.426h-12.213v12.214h-12.213v12.2H566.08v12.213h-12.2v12.215h-24.426v12.212H517.24v12.213h-24.426v12.201H468.4v12.212H358.508v12.215h122.107v-12.215h36.626v-12.212h12.214v-12.201h12.213v-12.213h24.413v-12.212h12.214v-12.215h12.213v-12.213h12.213v-12.2h12.214v-24.426h12.2v-24.428h12.213v-24.413h12.213v-24.427h12.214V357.44H651.56M346.295 650.493H334.08v-12.201h-12.213v-12.213h-36.626v12.213h12.2v12.201h24.427v12.212h36.64v-12.212h-12.213" fill="#231f20" originalFill="#231f20"/>
    <path d="M346.295 198.693v12.212h12.213V186.48h24.413v-12.201h-36.626v24.414m-12.214 24.426h12.214v-12.214H334.08v12.214m.001-61.054v12.214h12.214v-36.64H334.08v24.426m-12.212 73.267h12.213v-12.213h-12.213v12.213m-48.84 378.535v-12.215h-12.213v-12.213H248.6v-12.2h-12.213v24.413H248.6v12.215h12.214v12.212h24.426v-12.212h-12.213m12.214-317.482v-12.212h-24.426v12.212h24.426m-12.213-122.106v12.201h12.213v-24.415h-12.213v12.214" fill="#231f20" originalFill="#231f20"/>
    <path d="M273.028 137.639h12.213v24.426h12.2v-36.638h24.427v12.212h12.213v-24.412h-61.053v24.412m0-24.412v-12.215h-12.213v12.215h12.213m-12.213 97.678v-12.212h-24.427v12.212h24.427m-12.214-109.893h12.214V88.8h-36.627v12.212h24.413m-24.413 464.013v12.214h12.2v-12.214h-12.2m-12.213-12.212v12.212h12.213v-12.212h-12.213m12.213-378.534v-24.426h-12.213v12.212H199.76v12.214h24.427m.001-73.267h-12.213v12.215h12.213v-12.215" fill="#231f20" originalFill="#231f20"/>
    <path d="M211.975 528.385H199.76v-24.413h-12.213v-24.427h-12.213v-97.693h12.213v-48.84h12.213v-24.413h61.055v-12.214h-48.84v-12.212H199.76V271.96h-12.213v-12.214H163.12V223.12h12.214v12.213h48.853V223.12h12.2v-12.214h-24.412v12.214h-24.427v-12.214h-24.427V186.48h36.64v-12.201h-36.64v-24.426h-12.2v24.427h-12.213v24.414h12.213v73.266h24.414v12.214h12.213V320.8h-12.213v24.427H163.12v146.532h12.214v24.414h12.213V540.6h12.213v12.214h12.214v-24.428m-12.213-390.747v-12.212h12.214v-12.2h-24.427v12.2h-12.213v12.212h24.426m-24.426 0H163.12v12.214h12.214V137.64" fill="#231f20" originalFill="#231f20"/>
    <path d="M492.815 235.332h-12.2v12.201h12.2v-12.201m-256.427 36.627h24.427v-12.214h24.426v-12.212h12.2v-12.201h24.427v-12.213h12.213v-12.214h12.214V174.28H334.08v24.414h-12.213V174.28h-12.213v12.201H297.44v12.213h-12.2v12.212h-12.213v12.214h-12.213v12.213H248.6v12.201h-24.412v12.212h-12.213v12.214h24.413m73.267 85.479h12.213v-12.212h-12.213v12.212m-12.214 12.213h12.214v-12.213H297.44v12.213m329.695 24.413V357.44h-12.2V320.8H602.72v-12.201h-12.213v-24.426h-12.213V271.96H566.08v-12.214h-12.2v-12.212h-48.853v12.212h24.427v12.214h12.213v12.214h12.213v12.212h12.2V320.8h12.214v24.427h12.213v24.425h12.213v73.268h-12.213v48.839h-12.213v24.414H566.08V540.6h-12.2v12.214h-24.426v12.212H517.24v12.214h-24.426v12.2h-12.2v12.213h-24.427v12.215h-85.479v-12.215h-24.413V589.44h-24.427v-12.2h-12.213v-12.214H285.24v-12.212h-12.213v-24.428h-12.213v-12.212H248.6v-12.201h-12.213V491.76h-12.2v36.625h12.2V540.6H248.6v12.214h12.214v12.212h12.213v12.214h12.213v12.2h12.2v12.213h12.214v12.215h24.426v12.212h36.628v12.213h109.907V626.08h24.413v-12.212h12.213v-12.215h24.427V589.44h12.213v-12.2h12.2v-12.214h12.214v-12.212h12.213v-24.428h12.213V491.76h12.214v-12.214h12.2v-12.213h12.213v-73.267h-12.213" fill="#f4f4f4" originalFill="#f4f4f4"/>
    <path d="M224.188 467.332v-12.213h-12.213v-24.414h12.213v-12.212h-12.213v-36.641h12.213v-24.413h12.2v-12.212h12.213v-12.215h36.64V320.8h12.2v12.212h12.214V320.8h12.213v24.427h48.84v-12.215h61.053v12.215h12.214v-36.628H431.76v-48.854h-12.2v-24.413h48.84v-12.213h-85.48v12.213h-36.626v12.201h-24.427v24.427H297.44v12.214h-12.2V308.6h-12.213v12.2h-48.84v24.427h-12.213v12.212H199.76v24.413h-12.213v48.853h12.213v36.627h12.214v24.427h12.213v-24.427" fill="#f4f4f4" originalFill="#f4f4f4"/>
</svg>