<svg xmlns="http://www.w3.org/2000/svg" class="injected-svg" data-src="https://preview.pixlr.com/images/svg/100/1/a25e3ce787be59f3df068694b9ab3616042e0d8e9fb1e0976c4470fd3eede236.svg" xmlns:xlink="http://www.w3.org/1999/xlink" id="svg-edited-version" viewBox="0 0 786.667 786.667">
    <path d="M612.405 580.961v-12.213h-48.84v12.213h36.627v12.2h24.427v-12.2h-12.214m-73.266 48.84h12.213v-12.213h-12.213v12.213m-12.214-24.426h-12.2v12.213h24.414v-12.213h-12.214m-12.2-12.214h24.414v-12.2h-12.214v-12.213h-61.053v12.213h-12.2v24.414h24.413V580.96h36.64v12.2m-85.48 36.641h-48.84v-12.213h-36.64v12.213h-12.213v12.214h24.427V629.8h12.213v12.214h12.213v12.213h24.414v-12.213h12.213v12.213h24.427v-12.213h-12.214V629.8" fill="rgba(172, 119, 230, 1)" originalFill="#7b7979"/>
    <path d="M331.552 605.375h12.213V593.16h24.427v12.214h36.627V593.16h-12.214v-12.2h-61.053v12.2h-12.2v12.214h-24.427v36.64h12.214v-24.427h24.413v-12.213" fill="rgba(172, 119, 230, 1)" originalFill="#7b7979"/>
    <path d="M587.979 580.961h-12.2v12.2h12.2v12.214h12.213V580.96h-12.213m-73.254 36.628v-12.213H490.3v12.213h-24.427v24.427h12.213v12.213h48.84v-12.213h12.214v-24.427h-24.414m-97.694 24.427h-12.213v12.213h-24.414v-12.213h-12.213V629.8h-12.213v12.214h-24.427V629.8h-24.413v12.214h-12.214v36.626h134.32v-24.412h-12.213v-12.213m-158.747-24.427H221.66v12.213h24.426v12.214H270.5V629.8h-12.214v-12.213" fill="#393536" originalFill="#393536"/>
    <path d="M624.619 593.161h-24.427v24.427h36.64v-24.427h-12.213m-48.84 12.214h-12.214V593.16h-12.213v-12.2h-12.213v12.2h-24.414v-12.2h-36.64v24.414h-24.413v12.213h36.627v-12.213h48.84v12.213h12.213V629.8h-12.213v12.214h24.426V629.8h24.414v-12.213h-12.2v-12.213m-134.32-12.213v12.214h12.213V593.16h-12.213m0 24.428h-12.214v-12.213h-61.053V593.16h-24.427v12.214h-12.213v12.213h-24.413V629.8h36.626v-12.213h36.64V629.8h48.84v12.214h12.214v12.213h-12.214v12.2h24.427v-36.626h-12.213v-12.213m-122.107-24.427h-12.213v12.214h12.213V593.16m-36.64 48.855h-12.213v24.413h24.426v-36.627h-12.213v12.214m-12.213-12.214v-36.64h-36.627v12.214h-12.213v12.213h36.626v12.213H270.5" fill="rgba(68, 13, 96, 1)" originalFill="#4f4c4c"/>
    <path d="M600.192 446.641h-24.413v24.414h24.413V458.84h12.213v-12.2h-12.213m-48.84 24.415v12.213h-12.213v12.213h-12.214v12.214h-12.2v12.213h-12.213v24.413h24.413v-24.413h12.214v-12.213h12.213V495.48h12.213v-12.213h12.214v-12.213h-24.427m-24.427-61.053v-12.213h-12.2v24.427h12.2V410m-12.2 24.428v-12.213h-12.213v24.426h12.213v-12.213" fill="rgba(75, 115, 26, 1)" originalFill="#192b1b"/>
    <path d="M490.299 556.535h12.213V544.32h-12.213v12.214m12.213-97.693v-12.2h-12.213v24.414h12.213V458.84" fill="rgba(75, 115, 26, 1)" originalFill="#192b1b"/>
    <path d="M465.872 532.108h-12.2v-12.2h12.2zm24.427-36.627v-24.426h-24.427v12.213h-12.2v-12.213h-12.213v61.053h-12.214v61.053h12.214v-12.2h12.213v-12.213h12.2v-12.213h12.213v-48.84H490.3V495.48m-12.215-122.105h-12.213v12.213h12.213v-12.213m-12.213 85.466h12.213v-24.413H490.3v-24.427h-12.214v12.214h-12.213v24.426h-12.2v24.414h12.2V458.84m-.001-61.052h-12.2v12.213h12.2v-12.213m-36.627 109.907v-36.64h-12.213V458.84h24.427v-12.2h-12.214v-12.213h12.214v-12.213h-12.214v-24.427h12.214v-48.839h-12.214v24.427h-12.213V361.16h-12.213v36.628h12.213v24.427h-12.213v-24.427h-12.214v85.48h-12.2v24.427h12.2v12.213h-12.2v24.413h12.2v36.64h12.214v-12.213h12.213v-48.84h12.213v-12.213m-48.84-48.854h-12.213v24.427h12.213v-24.427m-12.213-24.413h-12.213v24.413h12.213v-24.413m-24.427 73.267h-12.213v12.213h-12.2v36.627h-12.213v24.426h12.213v-12.213h48.84v-61.053h-24.427m12.214-97.694h-12.214v24.427h12.214v-24.427" fill="rgba(75, 115, 26, 1)" originalFill="#192b1b"/>
    <path d="M331.552 397.788v12.213h12.213v-12.213h-12.213m0 85.48v-12.213h-12.2V458.84h-12.213v24.427h12.213v24.427h12.2v-24.427m-24.413 48.841v-12.2h-12.214v-12.213h-12.213v24.413h12.213v24.427h12.214v-24.427" fill="rgba(75, 115, 26, 1)" originalFill="#192b1b"/>
    <path d="M307.139 434.428h-12.214v-24.427H270.5v12.214h12.213v24.426h12.213v12.2h12.214v-24.413m-24.428-170.96v24.427h12.213v36.626h12.214v12.214h-12.214V324.52H270.5v12.214h12.213v12.213h12.213v12.213h24.427v-24.426h12.2V324.52h-12.2v-24.412h24.412v-12.213h-12.213V275.68h-12.2v-24.412h-12.213v-12.213h-24.427v24.413m0 293.067V544.32h-24.427v-12.213h-12.2v-24.412H221.66v12.213h-12.214v12.2h12.214v12.213h12.213v12.214h24.412v12.213H270.5v12.213h12.213v12.2h12.213v-24.413h-12.213v-12.213m-.001-73.267h-12.213v-24.427h-12.214v-24.413h-12.2v-12.213h-12.213v-24.427h-24.427v12.213h12.214v24.427h12.213v12.213h12.213v24.414h12.2v24.426H270.5v12.214h12.213v-24.427m-12.214-244.213h12.213v-24.427h-12.213v-12.213h-12.214v24.426H270.5v12.214m-48.841 232V458.84h-12.214v12.214h12.214m-24.427 36.641v12.213h12.213v-12.213h-12.213m12.213-48.854v-12.2h-12.213v-12.213h-12.2v24.413h24.413" fill="rgba(75, 115, 26, 1)" originalFill="#192b1b"/>
    <path d="M649.045 263.468H624.62v12.213h36.626v-12.213h-12.2m-12.214 134.32v12.213h-24.427v12.214h36.64V410h12.2v-12.213h-24.413m-36.64 109.908h-12.213v12.213h36.64v-12.213h-24.427m0-73.267h12.213v-12.213h-12.213v12.213m0-158.747v12.214h-12.213v12.213h-12.2v12.213h-12.214v12.2h-12.213v12.214h-12.213v12.213h-12.214v12.213h-12.2v12.214h-12.213v12.213h-12.213v12.2h-12.214v12.213h24.427v-12.213h12.213v-12.2h12.2v-12.213h12.214V361.16h12.213v-12.213h12.213v-12.213h12.214V324.52h12.2v-12.2h12.213v-12.213h12.213v-12.213h12.214V275.68h-24.427m0 122.108v-12.2h-24.413v12.2h24.413m0-146.52h-12.213v12.2h12.213v-12.2m-24.413 183.16v12.213h24.413v-12.213h-24.413m-12.214 85.48v12.2h24.414v-12.2h-24.414m0-61.067h12.214v-12.2h-12.214v12.2m12.214-61.053h-12.214v12.213h12.214v-12.213m0-134.32h-12.214v12.213h12.214v-12.213m-24.427 280.853h12.213v-12.213h-12.213v12.213m0-73.266h12.213V458.84h-12.213v12.214" fill="rgba(145, 242, 11, 1)" originalFill="#61c332"/>
    <path d="M563.565 410.001h-12.213v12.214h12.213V410m-24.426 73.268h12.213v-12.213h-12.213v12.213m12.213-207.587h-12.213v12.214h12.213V275.68m-24.427 219.801h12.214v-12.213h-12.214v12.213m12.214-207.586h-12.214v12.213h12.214v-12.213m-12.214 12.213h-12.2v12.213h12.2v-12.213m-12.2 12.213h-12.213v12.2h12.213v-12.2m-12.213 24.414V324.52h-12.213v24.427h12.213v-12.213m-36.64 85.481h12.213V410h-12.213v12.214m0-73.266v24.427h12.213V361.16H490.3v-12.213h-24.427m-.001-85.479v-12.2h12.213v-24.427h-12.213v-24.426h-12.2v12.213h-24.427v24.427h12.214V226.84h12.213v12.214h-12.213v24.414h24.413" fill="rgba(145, 242, 11, 1)" originalFill="#61c332"/>
    <path d="M429.245 263.468v36.64h-12.213v12.213h24.427v-24.426h12.213V275.68h-12.213v-12.213h-12.214m0 73.268V324.52h-12.213v12.214h12.213m-24.426 12.214v12.213h12.213v-24.426h-12.213v12.213" fill="rgba(145, 242, 11, 1)" originalFill="#61c332"/>
    <path d="M404.819 324.521h12.213v-12.2h-12.213v12.2m12.213-97.68h-12.213v24.427h-12.214v12.2h12.214v12.213h12.213v-24.413h12.213v-12.213h-12.213V226.84m-24.427 158.748v12.2h12.214v-24.413h-12.214v12.213m-12.2 36.627v24.426h12.2v-36.64h-12.2v12.214" fill="rgba(145, 242, 11, 1)" originalFill="#61c332"/>
    <path d="M392.605 263.468h-12.2v24.427h24.414V275.68h-12.214v-12.213m-24.413 195.374h12.213v-12.2h-12.213v12.2m0-122.106h-12.213V324.52h-12.214v24.427h12.214v24.427h-12.214v-24.427h-12.213v48.84h24.427v-12.2h12.213v-36.64h12.213V324.52h-12.213v12.214" fill="rgba(145, 242, 11, 1)" originalFill="#61c332"/>
    <path d="M368.192 300.108v12.213h12.213v12.2h12.2v-24.413h-12.2v-12.213h-12.213v12.213m0 12.213h-12.213v12.2h12.213v-12.2m-48.84-36.64h12.2v-24.413h-12.2v24.413M307.139 239.055v12.213h12.213v-12.213h-12.213m0-24.427h-12.214v24.427h12.214v-24.427m-24.427-12.213v-12.2h-12.213V178h-24.414v12.214h12.2v12.2H270.5v12.213h24.426v-12.213h-12.213m-.001 232.014v-12.213h-24.427v12.213H270.5v24.413h12.213v36.64h12.213v-48.84h-12.213v-12.213" fill="rgba(145, 242, 11, 1)" originalFill="#61c332"/>
    <path d="M270.499 410.001v-12.213h-12.214v-12.2h-12.2v-24.427h-12.213v-12.213h-12.213v-24.427h-12.214v-12.2h-24.413v-12.213h-12.213v-12.213h-24.427v12.213h12.213v12.213h12.214v12.2h12.213v12.214h12.2v12.213h12.213v12.213h12.214v12.214h12.213v24.413h12.213v24.427h12.2V410H270.5m-24.415 122.108h12.2v-12.2h-12.2v12.2m-12.213-366.32h-24.427v-12.213h-12.213V178h12.213v24.414h12.214v12.213h12.213v24.427h12.213v24.414h12.2v24.427H270.5v36.626h24.426v-36.626h-12.213V275.68H270.5v-24.412h-12.214v-24.427h-12.2v-24.426h-12.213V178h12.213v-12.213h-12.213m-24.428 317.481v12.213h-12.213v12.214h36.64v-24.427h-24.427" fill="rgba(145, 242, 11, 1)" originalFill="#61c332"/>
    <path d="M209.445 483.268v-12.213H136.18v12.213h48.853v12.213h12.2v-12.213h12.213m-12.214-48.84v12.213h12.213v12.2h12.214v-24.413h-12.214v-12.213h-24.413v12.213h12.2m-36.627-12.213h24.427V410h-12.213v-12.213h-24.427V410h12.213v12.214" fill="rgba(145, 242, 11, 1)" originalFill="#61c332"/>
    <path d="M673.459 226.841h-24.414v12.214h-36.64v12.213h-12.213v12.2h-24.413v12.213h-24.427v12.214h-12.213v12.213h-12.214v12.213h-12.2v12.2h-12.213v24.427h-12.213v12.213h-12.214v24.427h-12.213v24.413h12.213v-12.213H490.3v-12.2h12.213v-12.213h12.213V361.16h12.2v-12.213h-12.2v-12.213h12.2V324.52h12.214v-12.2h12.213v12.2h12.213v-12.2h12.214v-12.213h-12.214v-12.213h12.214v12.213h12.2v-12.213h12.213V275.68h24.427v-12.213h36.626v-12.2h12.214v-12.213h12.213V226.84H673.46m-12.215 158.748h-61.053v12.2h-24.413v12.213h-12.214v12.214H539.14v24.426h-12.214v12.2h-12.2v24.427h24.414v-12.213h12.213V446.64h12.213v-12.213h12.214v-12.213h12.2V410h48.853v-12.213h24.412V410h12.214v-12.213h12.213v-12.2h-24.427" fill="rgba(50, 188, 26, 1)" originalFill="#328024"/>
    <path d="M636.832 287.895V275.68h-12.213v12.214h12.213m-24.427 207.587H587.98v12.214h48.853V495.48h-24.427m-.001-73.265v12.213h24.427v-12.213h-24.427m-12.213 24.426h12.213v-12.213h-12.213v12.213m0-134.32h-12.213v12.2h12.213v-12.2m-24.413 207.587h12.2v-12.213h-12.2v12.213m0-61.067h-12.214v12.214h12.214V458.84m-12.214-109.892h-12.213v12.213h12.213v-12.213m-12.213 12.213h-12.213v12.214h12.213V361.16m-12.213-24.425h12.213V324.52h-12.213v12.214m0 36.641h-12.214v12.213h12.214v-12.213m-12.214-24.427h12.214v-12.213h-12.214v12.213m0 36.64h-12.2v12.2h12.2v-12.2m-12.2 12.2h-12.213v12.213h12.213v-12.213m0-97.68h-12.213v12.213h12.213v-12.213m-24.426 122.107h12.213V410h-12.213v12.214m12.213-109.893h-12.213v12.2h12.213v-12.2m-12.213 12.2h-12.214v24.427H490.3v-24.427m-24.428-109.893v12.213h12.213v-12.213H490.3v-24.413h12.213V178h-36.64v12.214h-12.2v12.2h12.2v12.213m-12.201 85.481h-12.213v12.213h12.213v-12.213m0-24.427v-12.213h-12.213v12.213h12.213m-12.213-36.626h12.213V226.84h-12.213v12.214m-12.214 12.214h-12.213v24.413h-12.213v12.214h-24.414v12.213h24.414v12.213h12.213v-12.213h12.213v-36.64h12.214v-24.413h-12.214v12.213m0-48.853v12.213h24.427v-12.213h-24.427m0 122.106v12.214h-12.213v36.64h12.213v-24.427h12.214v-36.627h-24.427v12.2h12.213m-12.213-97.68v12.214h12.213V226.84h-12.213m-12.213 183.161h12.213v-12.213h-12.213v12.213" fill="rgba(50, 188, 26, 1)" originalFill="#328024"/>
    <path d="M404.819 324.521v12.214h12.213V324.52h-12.213m-12.214 24.428v24.427h12.214v-36.64h-12.214v12.213m0-85.48v12.213h12.214v-12.213h-12.214m-12.2 122.12v12.2h-12.213v48.853h12.213v-36.64h12.2v-36.626h-12.2v12.213m0-61.067v-12.2h-12.213v12.2h12.213M368.192 336.735V324.52h-12.213v12.214h12.213m0-36.626h-12.213v12.213h12.213v-12.213m-24.427 109.893h12.214v-12.213h-12.214v12.213m0-48.84v12.214h12.214v-24.427h-12.214v12.213m0-48.84v12.2h12.214v-12.2h-12.214" fill="rgba(50, 188, 26, 1)" originalFill="#328024"/>
    <path d="M331.552 422.215h12.213V410h-12.213v12.214m0-85.479v12.213h12.213v-12.213h-12.213m0-61.054v12.214h24.427v-24.427h-12.214v-12.2h-12.213v24.413m0 170.96v-12.213h-12.2v-12.213h-12.213v-24.427h-12.214v-12.2h-12.213v12.2h-12.213v12.213h24.426v24.427h12.214v24.413h12.213v12.214h12.2v36.64h12.213V458.84h-12.213v-12.2m0-61.052v-12.213h-12.2V410h12.2v-24.412m-12.2-73.267v12.2h12.2v-24.413h-12.2v12.213m12.2-61.053v-12.213h-12.2v12.213h12.2m-24.413-12.213h12.213v-24.427h-12.213v24.427m-12.214 256.426h-12.213v12.214h12.213v12.213h12.214v-36.64h-12.214v12.213m12.214-293.066h-12.214v12.213h12.214v-12.213m-12.214 24.426v-12.213h-12.213v24.427h12.213V226.84m-12.213-36.625v12.2h12.213v-12.2h-12.213m0 280.84V458.84h-12.213v24.427h12.213v-12.213m-12.213-293.053v12.214h12.213V178h-12.213m-12.214 366.321H270.5v-12.213h-12.214v12.213m12.213-109.893h-12.214v12.213H270.5v-12.213" fill="rgba(50, 188, 26, 1)" originalFill="#328024"/>
    <path d="M258.285 422.215H270.5V410h-12.214v12.214m12.213-48.839h-12.214v-24.427h-12.2v-12.213h-12.213V324.52h-12.213v24.427h12.213v12.213h12.213v24.427h12.2v12.2H270.5v-24.412m-12.215-122.107H270.5v24.413h12.213v-36.626H270.5V226.84h-12.214v24.427m-12.201-36.639v12.213h12.2v-36.626h-12.2V178h-12.213v24.414h12.213v12.213m-12.213 293.068h12.213V495.48h-12.213v12.214m0-97.693h12.213v-12.213h-12.213v12.213m-24.427 109.907h12.214v-12.213h-12.214v12.213m0-207.587v12.2h12.214v-12.2h-12.214m12.214-158.746h-12.214v12.213h12.214v-12.213m-12.214 329.693h-12.213v12.213h12.213v-12.213m-12.213-73.267h-12.2v12.214h12.2V410m0-109.892h-12.2v12.213h12.2v-12.213m0-146.533h-12.2v12.213h12.2v-12.213m-12.2 329.693h-36.64v12.213h24.427v12.214h24.413V495.48h-12.2v-12.213m0-61.052h-12.213v12.213h12.213v-12.213m-73.266 61.053v12.213h24.413v-12.213h-24.413" fill="rgba(50, 188, 26, 1)" originalFill="#328024"/>
    <path d="M697.885 397.788H673.46v12.213h-24.414v12.214h-12.213v12.213h-24.427v24.413h12.214v-12.2h24.426v-12.213h36.627v-12.213h12.213V410H710.1v-12.213h-12.214m-97.694 73.268h12.213V458.84h-12.213v12.214m-12.213-61.053v12.214h-12.2v12.213h24.413v-12.213h12.213V410H587.98m-12.201 61.055v12.213h-12.214v12.213h-12.213v12.214h-12.213v12.213h-12.214v24.413h12.214v-12.213h12.213v-12.2h12.213v-12.213h12.214V495.48h12.2v-12.213h12.213v-12.213h-24.413m-12.214-24.413h12.214v-12.213h-12.214v12.213m12.214-158.746h-12.214v12.213h12.214v-12.213m-24.427 170.946h12.213v-12.2h-12.213v12.2m0-85.466h-12.213v12.213h-12.214v24.413h12.214v-12.213h12.213v-12.2h12.213v-12.213h12.214V361.16h12.2v-12.213h12.213v-12.213h12.213V324.52h12.214v-12.2h12.213v-12.213h12.213v-12.213h24.414v-24.427h12.213v-12.2h12.213V226.84h-12.213v12.214h-12.213v12.213h-12.214v24.414h-24.413v12.214h-24.427v12.213h-12.213v24.413h-24.413v12.214h-12.214v24.426h-12.213v12.214" fill="rgba(97, 148, 18, 1)" originalFill="#18551a"/>
    <path d="M539.139 568.748h24.426v-12.213h36.627V544.32h12.213v-12.213h61.054v-12.2h-12.214v-12.213H624.62v12.213h-36.64v12.2h-24.414v12.213H539.14v24.427m12.212-256.426h-12.213v12.2h12.213v-12.2m-12.213 12.2h-12.214v12.214h12.214V324.52" fill="rgba(97, 148, 18, 1)" originalFill="#18551a"/>
    <path d="M514.725 348.948h12.2v-12.213h-12.2v12.213m-12.213 195.373v12.214h24.413V544.32h-24.413m12.213-36.625h12.2v-24.427h-12.2v12.213h-12.213v24.427h12.213v-12.213m0-97.694h-12.213v12.214h12.213V410m0-231.999v-12.213h-12.213v24.427h12.213V178m-12.213 341.908h-12.213v24.413h12.213v-24.413m0-36.64v-12.213h-12.213v12.213h12.213m-24.427 24.427v12.213H490.3v-12.213h-12.214" fill="rgba(97, 148, 18, 1)" originalFill="#18551a"/>
    <path d="M490.299 471.055V446.64h12.213v-24.426h-12.213v12.213h-12.214v24.414h-12.213v12.214h24.427m-36.627 61.053h12.2v-12.2h-12.2v12.2" fill="rgba(97, 148, 18, 1)" originalFill="#18551a"/>
    <path d="M453.672 483.268h12.2v-12.213h-12.2v12.213m0-61.053v24.426h12.2v-36.64h-12.2v12.214m0-48.84v-36.64h12.2v-48.84h12.213v-24.427H490.3v-36.627h12.213v-36.626H490.3v24.413h-12.214v36.64h-12.213v12.2h-12.2v24.427H441.46v12.213h12.213v12.213H441.46v73.267h12.213v-12.213m-24.428 36.626v12.214h12.214v-24.427h-12.214v12.213m-12.213 61.054h12.213V458.84h-12.213v12.214m0-61.053h-12.213v12.214h12.213V410m-12.213-85.479v-24.413h-12.214v24.413h-12.2v24.427h-12.213v36.64h-12.213v48.84h12.213v-36.64h12.213v-24.413h12.2v-36.64h12.214V324.52m-24.414 195.388h12.2v-12.213h-12.2v12.213m0-61.067v24.427h12.2v-36.627h-12.2v12.2" fill="rgba(97, 148, 18, 1)" originalFill="#18551a"/>
    <path d="M368.192 495.481h12.213v-12.213h-12.213v12.213m0-36.64h-12.213v12.214h12.213V458.84m-24.427 36.641v12.214h12.214v-24.427h-12.214v12.213m0-48.84h12.214v-12.213h-12.214v12.213m-24.413 48.84v-12.213h-12.213v73.267h12.213v-36.627h12.2v-12.213h-12.2V495.48" fill="rgba(97, 148, 18, 1)" originalFill="#18551a"/>
    <path d="M307.139 458.841h-12.214v24.427h12.214v-24.427m0-134.32h-12.214v12.214h12.214V324.52m-36.64 268.641h12.213v-12.2h-12.213v12.2m0-207.573v12.2h12.213v-24.413h-12.213v12.213M258.285 568.748v12.213H270.5v-12.213h-12.214m-.001-109.907H270.5v-12.2h-12.214v12.2m-.001-97.68v12.214H270.5V361.16h-12.214m-12.201 195.375h-12.213v12.213h24.413v-12.213h-12.2m0-73.267h12.2v-12.213h-12.2v12.213m0-48.84h12.2v-12.213h-12.2v12.213m-12.213-24.427v12.214h12.213V410h-12.213m-12.213 134.321v12.214h12.213V544.32h-12.213m0-73.265h12.213V458.84h-12.213v12.214m-12.214 61.054v12.213h12.214v-12.213h-12.214m0-305.267h12.214v36.627h12.213v12.213h12.213v48.84h12.2v12.214H270.5v-48.84h-12.214v-24.427h-12.2v-24.413h-12.213v-24.427H221.66v-12.213h-12.214v24.426m-12.214 293.067v-12.213h-24.413V495.48h-24.427v-12.213h-12.213v12.213H99.552v12.214h61.053v12.213h24.427v12.2h24.413v-12.2h-12.213m0-317.492h12.213V178h-12.213v24.414m0-24.413v-12.213h-12.2v12.213h12.2m-12.2 280.84v-24.413h-12.213v-12.213h-12.214V410h-12.213v-12.213h-12.213v24.427h12.213v12.213h12.213v12.213h12.214v12.2h12.213m0-305.265h-12.213v12.213h12.213v-12.213m-48.853 146.533v12.213h12.213v12.2h12.213v12.214h12.214v24.426h12.213v12.214h12.2v12.213h12.213v12.2h24.427v-24.413h-12.213V361.16h-12.214v-12.213h-12.213v-12.213h-12.2V324.52h-12.213v-12.2h-12.214v-12.213h-12.213V275.68h-24.426v12.214h12.213v12.213" fill="rgba(97, 148, 18, 1)" originalFill="#18551a"/>
    <path d="M734.512 397.788h-12.213v-12.2h-24.414v-12.213h-85.48v-24.427h12.214v-12.213h12.213V324.52h12.213v-24.412h-12.213v12.213h-12.213v12.2h-12.214v12.214h-12.213v12.213h-12.213v12.213h-12.2v12.214h-12.214v12.213h-12.213v12.2h-12.213v12.213h-12.214v12.214h-12.2v24.426h-12.213v36.627h-12.213v36.64h12.213v-24.427h12.213v-36.64h12.2v-12.2h12.214v-24.426h12.213V410h12.213v-12.213h12.214v-12.2h109.893v12.2h24.427V410h-12.214v12.214h-12.213v12.213h24.427v-12.213h36.626v-24.427h-12.213m-48.84-134.319h12.213v-12.2h-12.213v12.2m-12.213 12.213h12.213v-12.213h-12.213v12.213m0 244.227v12.2h-61.054v12.213h-12.213v12.214h-36.627v12.213h48.84v-12.213h12.214V544.32h85.48v-12.213h-12.214v-12.2h-12.213v-12.213h-24.427v12.213h12.214" fill="rgba(17, 50, 9, 1)" originalFill="#231f20"/>
    <path d="M673.459 446.641v-12.213h-24.414v12.213h24.414m-12.214-158.746h-12.2v12.213h12.2v-12.213m-12.2 317.48h-12.213v12.213h12.213v-12.213m0-97.68h12.2V495.48h-24.413v12.214h12.213m-12.213 85.467v-12.2h-12.213v12.2h12.213m-12.213-12.2v-12.213h-12.214v12.213h12.214" fill="rgba(17, 50, 9, 1)" originalFill="#231f20"/>
    <path d="M612.405 495.481h24.427v-12.213h-12.213v-12.213h12.213V458.84h12.213v-12.2H624.62v12.2h-12.214v12.214h-12.213v12.213H587.98v12.213h24.426m-24.427.001h-12.2v12.214h12.2V495.48m-12.2 12.215h-12.214v12.213h12.214v-12.213m-12.214 12.213h-12.213v12.2h12.213v-12.2m-12.213 12.2h-12.213v12.213h12.213v-12.213m-24.427-232v-12.213h12.214V275.68h24.426v-12.213h24.414v-12.2h24.426v-12.213h36.64V226.84h48.84v24.427H710.1v-12.213h12.2v-24.427h-85.467v12.213h-36.64v12.214h-24.414v12.213h-24.427v12.2h-24.427v12.213h-12.2v12.214h-12.213v12.213h24.413" fill="rgba(17, 50, 9, 1)" originalFill="#231f20"/>
    <path d="M478.085 532.108v24.427h-12.213v12.213h61.053v12.213h24.427v12.2h12.213v12.214h12.214v12.213h12.2v12.213h-24.414v12.214h-36.64v12.213h-48.84v-12.213h-12.213v-24.427h-12.2v-12.213h-12.213V593.16h-12.214v-61.053h12.214v-61.053h12.213v-73.267h12.2v-48.839h12.213v-24.427H490.3v-12.2h12.213v-12.213H490.3v-24.427h12.213v-36.626h12.213v-36.64h12.2V178h12.214v-12.213h12.213V141.36h-24.427v12.214H490.3v12.213h-36.628V178h-24.427v12.214h-12.213v12.2h-12.213v12.213h-12.214v12.213h-12.2v24.427H355.98V226.84h-12.214v-12.213h-12.213v-12.213h-12.2v-12.2H307.14V178h-12.214v-12.213h-36.64v-12.213h-24.414V141.36h-36.64v-12.213h-48.84v12.213h12.213v24.427h12.214v-12.213h48.84v12.213h24.426V178h36.627v12.214h12.213v12.2h12.214v12.213h12.213v24.427h12.2v12.213h12.213v12.2h12.214v24.427h-12.214v12.213h-12.213v36.628h12.213V312.32h12.214v-12.213h12.213v-12.213h12.213v-24.427h12.2v-12.2h12.214V226.84h24.426v-24.426h24.427v-12.2h12.2V178h36.64v-12.213h12.213v24.427h-12.213v36.626h-12.213v36.628h-12.214v24.427h-12.213v48.84h-12.2v48.853h-12.213v48.84h-12.214v12.213h12.214v12.2h-12.214v61.067h-12.213v48.84h-12.213v12.213h-12.214v12.2h12.214v12.214h24.426v12.213h12.214v12.213h12.213v36.627h-24.427v12.213h-134.32v-12.213H270.5v-24.413h-24.414V629.8H221.66v-24.426h12.213V593.16h36.626v-12.2h-12.214v-12.213h-24.413v-12.213h-12.213V544.32h-12.214v-12.213h-24.413v-12.2h-24.427v-12.213H99.552V495.48h12.214v-12.213h24.413v-12.213h73.266V458.84H172.82v-12.2h-12.214v-12.213h-12.213v-12.213H136.18v-24.427h36.64V410h24.412v12.214h12.213v12.213h12.214V410h-12.214v-24.412h-12.213v-12.213h-12.2V361.16h-12.213v-24.426h-12.214V324.52h-12.213v-12.2h-12.213v-24.426h-12.213V275.68h24.426v12.214h24.427v12.213h24.413v12.213h24.427v12.2h12.213v12.214h12.213v12.213h12.2v12.213H270.5v12.214h12.213v12.213h12.213v12.2h12.214v24.427h12.213v12.213h12.2v24.414h12.213v24.427h12.214v24.427h12.213v61.053h-48.84v12.213H307.14v-24.426h-12.214v-24.427h-12.213v-24.413H270.5V495.48h-12.214v-12.213h-12.2v-36.626h-12.213v-12.213H221.66v24.413h12.213v12.214h-24.427v12.213h24.427v12.213h12.213v24.427h12.2v12.2H270.5v12.213h12.213v24.427h12.213v24.413H270.5v48.854h12.213V629.8h12.213v-24.426h12.214V593.16h24.412v-12.2h61.053v-36.64h-12.2v-48.839h-12.213v-24.426h-12.213V446.64h-12.214v-24.426h-12.213V410h-12.2v-36.626h12.2v-36.64h-12.2v24.426h-24.427v-12.213h-12.213v-12.213h-24.427V324.52h-12.2v-48.839h-12.213v-12.213h-12.213v-36.627h-12.214v-24.426h-12.213V178h-12.2v-12.213h-12.213v24.427h12.213v24.414h12.2v24.427h12.213v36.626h12.214v12.214h-24.427V275.68h-24.413v-12.213h-36.64v-12.2H75.125v12.2H87.34v12.213h12.213v12.214h12.214v12.213h12.2v24.414h12.213v12.214h12.213v24.426h12.213v12.214h12.214v12.213H87.339v12.2h12.213v12.213h12.214v12.214h12.2v12.213h12.213v12.213h12.213v12.2h-24.426v12.214H99.552v12.213H87.34v24.427H75.125v12.213h73.267v12.2h24.427v12.213h12.213v12.214h24.413v12.213h12.214v24.413h-12.214v48.854h24.427v12.213h24.413v24.413h24.427v12.214h158.747V678.64h24.413v-12.213h73.267v-12.2h36.64v-12.213h24.413V629.8h36.64v-12.213h-36.64v-12.213h-12.213V593.16h-12.2v-12.2h-12.214v-12.213H539.14V544.32h-12.214v12.214H490.3v-36.626h-12.214v12.2" fill="rgba(17, 50, 9, 1)" originalFill="#231f20"/>
    <path d="M465.872 568.748h-12.2v12.213h12.2v-12.213m-12.2 12.213h-12.213v12.2h12.213v-12.2" fill="rgba(17, 50, 9, 1)" originalFill="#231f20"/>
</svg>